<svg viewBox="0 0 128 128" xmlns="http://www.w3.org/2000/svg">
<polygon points="68.613 69.625 86.891 69.625 71.697 54.625 52.613 54.625 52.613 72.746 68.613 88.548" fill="#EE7913"/>
<linearGradient id="SVGID_1_" x1="402.52" x2="400.65" y1="-220.87" y2="-97.502" gradientTransform="matrix(1 0 0 -1 -300.52 -92.555)" gradientUnits="userSpaceOnUse">
	<stop stop-color="#589632" offset="0"/>
	<stop stop-color="#93B023" offset="1"/>
</linearGradient>
<polygon points="126.61 109.06 94.488 77.625 76.613 77.625 76.613 96.033 107.14 126.62 126.61 126.62" fill="url(#SVGID_1_)"/>
<polygon points="76.613 77.625 94.488 77.625 86.891 69.625 68.613 69.625 68.613 88.548 76.613 96.033" fill="#F0E64A"/>
<linearGradient id="SVGID_2_" x1="365.46" x2="363.59" y1="-221.15" y2="-98.227" gradientTransform="matrix(1 0 0 -1 -300.52 -92.555)" gradientUnits="userSpaceOnUse">
	<stop stop-color="#589632" offset="0"/>
	<stop stop-color="#93B023" offset="1"/>
</linearGradient>
<path d="m68.923 101.55c-1.165 0.242-1.769 0.157-4.685 0.157-20.866 0-38.612-17.158-38.612-39.406s17.551-39.027 38.612-39.027 37.833 16.78 37.833 39.027c0 3.619-0.451 7.099-1.284 10.398l19.313 19.311c4.979-8.726 7.765-18.869 7.765-29.857 0-34.289-27.363-59.963-64.016-59.963-36.486-1e-3 -63.849 25.504-63.849 59.962 0 34.625 27.363 60.638 63.848 60.638 9.417 0 16.069-1.469 23.042-3.761l-17.967-17.479z" fill="url(#SVGID_2_)"/>
<polygon points="53.083 54.625 71.697 54.625 126.61 109.06 126.61 126.62" fill="#FFFFFF" opacity=".15"/>
</svg>
