<svg viewBox="0 0 185 185" xmlns="http://www.w3.org/2000/svg" xmlns:xlink="http://www.w3.org/1999/xlink">
 <defs>
  <clipPath id="cp1">
   <path d="m143 103s0-0.03-0.05-0.1c-1.65-3.72-47.1-77.6-53.4-103-6.38 25.8-46.2 90.3-50.8 98.7s-7.27 18-7.27 28.2c0 32.2 26.1 58.2 58.2 58.2s58.2-26.1 58.2-58.2c0-8.35-1.77-16.3-4.93-23.5"/>
  </clipPath>
 </defs>
 <g clip-path="url(#cp1)" >
  <rect width="185" height="185" fill="#5b9bd5"/>
  <circle id="p1" cx="105" cy="107" r="8" fill="#fff"/>
  <use transform="translate(-16.8 15.5)" xlink:href="#p1"/>
  <use transform="translate(25 -21.3)" xlink:href="#p1"/>
  <use transform="translate(-42.1 -49.9)" xlink:href="#p1"/>
  <use transform="translate(-59.5 -15.5)" xlink:href="#p1"/>
  <use transform="translate(-40.9 42.2)" xlink:href="#p1"/>
  <use transform="translate(-4.46 49.7)" xlink:href="#p1"/>
  <use transform="translate(17.3 19)" xlink:href="#p1"/>
  <g fill="none" stroke="#fff" stroke-width="3.4">
   <path d="m62.8 57.3 43.1 50.6"/>
   <path d="m132 84.8-42.8 38.1-43.8-33.1 18.6 59.7"/>
   <path d="m31.4 143 106 21.7"/>
   <path d="m101 157 22-31.1 28.9 8.65"/>
  </g>
 </g>
</svg>
