<?xml version="1.0" encoding="UTF-8"?>
<svg version="1.1" viewBox="0 0 185 185" xmlns="http://www.w3.org/2000/svg">
 <defs>
  <clipPath id="cp1">
   <path d="m143 103s0-0.03-0.05-0.1c-1.65-3.72-47.1-77.6-53.4-103-6.38 25.8-46.2 90.3-50.8 98.7s-7.27 18-7.27 28.2c0 32.2 26.1 58.2 58.2 58.2s58.2-26.1 58.2-58.2c0-8.35-1.77-16.3-4.93-23.5"/>
  </clipPath>
 </defs>
 <g clip-path="url(#cp1)">
  <rect width="185" height="185" fill="#5b9bd5"/>
  <g fill="none" stroke="#fff" stroke-width="3.4">
   <path d="M63 57 105 107"/>
   <path d="M130 86 88 122 46 92 64 149"/>
   <path d="M31 143 137 164"/>
   <path d="M101 157 122 126 151 130"/>
  </g>
  <g fill="#fff">
   <circle cx="105" cy="107" r="8"/>
   <circle cx="130" cy="86" r="8"/>
   <circle cx="63" cy="57" r="8"/>
   <circle cx="88" cy="122" r="8"/>
   <circle cx="46" cy="92" r="8"/>
   <circle cx="64" cy="149" r="8"/>
   <circle cx="101" cy="157" r="8"/>
   <circle cx="122" cy="126" r="8"/>
  </g>
 </g>
</svg>
